<svg xmlns="http://www.w3.org/2000/svg" width="20" height="20" viewBox="0 0 20 20" fill="none">
  <path d="M9.16667 4.99996C10.0871 4.99996 10.8333 4.25377 10.8333 3.33329C10.8333 2.41282 10.0871 1.66663 9.16667 1.66663C8.24619 1.66663 7.5 2.41282 7.5 3.33329C7.5 4.25377 8.24619 4.99996 9.16667 4.99996Z" stroke="white" stroke-width="2.08333" stroke-linecap="round" stroke-linejoin="round"/>
  <path d="M15.0002 8.33333C15.9206 8.33333 16.6668 7.58714 16.6668 6.66667C16.6668 5.74619 15.9206 5 15.0002 5C14.0797 5 13.3335 5.74619 13.3335 6.66667C13.3335 7.58714 14.0797 8.33333 15.0002 8.33333Z" stroke="white" stroke-width="2.08333" stroke-linecap="round" stroke-linejoin="round"/>
  <path d="M16.6667 15C17.5871 15 18.3333 14.2538 18.3333 13.3333C18.3333 12.4128 17.5871 11.6666 16.6667 11.6666C15.7462 11.6666 15 12.4128 15 13.3333C15 14.2538 15.7462 15 16.6667 15Z" stroke="white" stroke-width="2.08333" stroke-linecap="round" stroke-linejoin="round"/>
  <path d="M7.50012 8.33337C8.04729 8.33337 8.58911 8.44115 9.09463 8.65054C9.60015 8.85994 10.0595 9.16685 10.4464 9.55376C10.8333 9.94067 11.1402 10.4 11.3496 10.9055C11.559 11.411 11.6668 11.9529 11.6668 12.5V15.4167C11.6666 16.1138 11.4167 16.7877 10.9625 17.3164C10.5082 17.8451 9.87966 18.1937 9.19061 18.299C8.50155 18.4042 7.79758 18.2593 7.20619 17.8903C6.61481 17.5213 6.17513 16.9527 5.96678 16.2875C5.61123 15.1403 4.86123 14.3889 3.71678 14.0334C3.05194 13.8251 2.48359 13.3858 2.11458 12.7948C1.74558 12.2039 1.6003 11.5004 1.70502 10.8116C1.80975 10.1228 2.15757 9.49429 2.68554 9.03972C3.21351 8.58515 3.88676 8.33459 4.58345 8.33337H7.50012Z" stroke="white" stroke-width="2.08333" stroke-linecap="round" stroke-linejoin="round"/>
</svg>